<svg version="1.0" xmlns="http://www.w3.org/2000/svg" width="800.000000" height="800.000000" viewBox="0 0 800.000000 800.000000" preserveAspectRatio="xMidYMid meet">
  <metadata>
    <rdf:RDF xmlns:rdf="http://www.w3.org/1999/02/22-rdf-syntax-ns#" xmlns:rdfs="http://www.w3.org/2000/01/rdf-schema#" xmlns:dc="http://purl.org/dc/elements/1.1/">
      <rdf:Description dc:format="image/svg+xml" dc:Label="1" dc:ContentProducer="001191330110MACRLGPT8B00000" dc:ProduceID="401974472" dc:ReservedCode1="2cGMND2M+6KJe2lFVz5h9IPhTZL78ma+cvcvKCeesmU=" dc:ContentPropagator="001191330110MACRLGPT8B00000" dc:PropagateID="401974472" dc:ReservedCode2="2cGMND2M+6KJe2lFVz5h9IPhTZL78ma+cvcvKCeesmU="/>
    </rdf:RDF>
  </metadata>
  <g transform="translate(167.194604,632.736703) scale(0.058272,-0.058272)" fill="#000000" stroke="none">
    <path d="M1050 7581 c-88 -29 -122 -47 -186 -94 -70 -51 -121 -116 -166 -213 l-33 -69 -3 -3180 c-1 -2244 1 -3195 9 -3232 26 -130 150 -289 270 -347 124 -60 -95 -56 3054 -56 2383 0 2899 3 2940 14 192 51 353 222 385 407 8 45 10 986 8 3224 l-3 3160 -22 54 c-62 151 -180 267 -330 324 l-58 22 -2905 2 c-2791 2 -2907 1 -2960 -16z m5793 -365 c43 -17 95 -78 102 -118 3 -18 4 -1426 3 -3129 l-3 -3096 -29 -37 c-16 -21 -47 -47 -70 -57 -40 -18 -128 -19 -2851 -19 -2723 0 -2811 1 -2851 19 -23 10 -54 36 -70 57 l-29 37 -3 3096 c-1 1703 0 3111 3 3129 7 39 58 100 100 118 45 20 5651 20 5698 0z"/>
    <path d="M4310 6535 c-71 -32 -58 -13 -386 -580 -294 -509 -564 -984 -586 -1027 -61 -125 28 -271 167 -271 61 0 124 30 158 75 14 18 103 170 199 338 96 168 284 494 418 725 291 503 304 530 296 588 -14 93 -84 159 -174 164 -37 2 -70 -2 -92 -12z"/>
    <path d="M2500 6299 c-26 -8 -105 -80 -306 -282 -150 -150 -280 -288 -290 -307 -24 -46 -25 -162 -2 -205 9 -16 136 -149 282 -295 306 -305 326 -318 429 -289 47 13 106 63 123 106 18 43 18 105 -2 151 -9 23 -87 109 -209 232 l-194 195 193 200 c106 110 200 214 209 232 24 46 22 127 -5 174 -42 75 -142 114 -228 88z"/>
    <path d="M5245 6291 c-105 -48 -146 -162 -92 -259 12 -22 104 -125 205 -228 100 -103 182 -192 182 -198 0 -5 -84 -94 -187 -198 -103 -103 -195 -202 -205 -220 -9 -18 -17 -55 -18 -81 -1 -124 116 -215 237 -186 44 11 69 33 311 273 145 144 275 281 290 305 37 64 37 158 0 222 -38 64 -534 554 -580 574 -49 20 -94 19 -143 -4z"/>
    <path d="M2224 3841 c-23 -10 -54 -36 -70 -56 -52 -69 -42 -189 23 -247 55 -50 -33 -48 1758 -48 1810 0 1703 -3 1763 53 93 86 65 245 -52 298 -40 18 -101 19 -1711 19 -1610 0 -1671 -1 -1711 -19z"/>
    <path d="M2230 2379 c-32 -13 -78 -56 -96 -91 -17 -32 -18 -121 -3 -151 17 -33 60 -77 94 -95 28 -16 162 -17 1665 -19 899 0 1660 2 1691 6 119 15 197 118 169 223 -16 56 -46 94 -95 118 -41 20 -62 20 -1721 19 -1087 0 -1688 -4 -1704 -10z"/>
  </g>
</svg>