<svg version="1.0" xmlns="http://www.w3.org/2000/svg" width="800.000000" height="800.000000" viewBox="0 0 800.000000 800.000000" preserveAspectRatio="xMidYMid meet">
  <metadata>
    <rdf:RDF xmlns:rdf="http://www.w3.org/1999/02/22-rdf-syntax-ns#" xmlns:rdfs="http://www.w3.org/2000/01/rdf-schema#" xmlns:dc="http://purl.org/dc/elements/1.1/">
      <rdf:Description dc:format="image/svg+xml" dc:Label="1" dc:ContentProducer="001191330110MACRLGPT8B00000" dc:ProduceID="401974471" dc:ReservedCode1="RRPhyvVJnlnQQksAglF7r4CdTA9iIAL6p+0Ba3rA3fU=" dc:ContentPropagator="001191330110MACRLGPT8B00000" dc:PropagateID="401974471" dc:ReservedCode2="RRPhyvVJnlnQQksAglF7r4CdTA9iIAL6p+0Ba3rA3fU="/>
    </rdf:RDF>
  </metadata>
  <g transform="translate(179.298937,627.398650) scale(0.056008,-0.056008)" fill="#000000" stroke="none">
    <path d="M1795 7673 c-311 -28 -606 -129 -847 -290 -359 -240 -596 -580 -703 -1008 -46 -182 -59 -310 -52 -517 14 -462 179 -847 489 -1144 277 -264 609 -398 1043 -422 147 -9 383 -2 523 13 438 48 1039 175 1175 247 86 46 178 142 222 231 59 120 68 187 61 447 -16 574 -84 1042 -201 1380 -46 131 -138 321 -203 420 -201 301 -565 531 -962 609 -179 35 -386 48 -545 34z m414 -468 c309 -59 560 -212 710 -434 201 -296 322 -869 334 -1576 2 -162 -3 -184 -56 -233 -58 -54 -726 -184 -1088 -212 -354 -27 -641 8 -836 101 -272 130 -490 391 -577 690 -36 125 -49 228 -49 384 0 287 75 533 235 766 68 100 212 243 313 311 163 109 391 192 595 217 110 13 313 6 419 -14z"/>
    <path d="M5724 7660 c-287 -28 -575 -130 -813 -287 -122 -81 -310 -271 -394 -399 -226 -342 -340 -804 -387 -1564 -21 -346 -9 -466 60 -606 54 -110 144 -200 254 -254 65 -32 119 -48 271 -79 552 -114 949 -158 1329 -148 287 8 422 29 610 94 216 75 382 178 536 333 161 161 260 313 345 529 131 331 151 734 56 1104 -157 606 -630 1078 -1236 1231 -178 45 -444 64 -631 46z m469 -474 c108 -25 209 -62 315 -115 423 -212 682 -649 684 -1151 1 -330 -98 -605 -292 -813 -213 -228 -452 -320 -865 -334 -315 -10 -690 34 -1225 144 -141 28 -165 40 -200 91 -32 46 -37 139 -21 411 38 640 134 1038 317 1311 159 238 438 406 769 465 105 19 421 13 518 -9z"/>
    <path d="M5770 3854 c-19 -2 -91 -9 -160 -15 -252 -21 -679 -96 -940 -165 -220 -57 -351 -141 -443 -282 -105 -160 -122 -293 -97 -742 52 -927 242 -1449 655 -1798 609 -514 1518 -549 2175 -84 121 86 306 270 393 392 77 109 192 333 237 465 61 175 100 412 100 607 0 279 -59 538 -179 783 -175 356 -474 622 -845 749 -108 37 -286 73 -431 85 -110 10 -381 12 -465 5z m610 -483 c448 -98 748 -427 835 -914 23 -130 16 -409 -13 -537 -59 -251 -174 -467 -338 -635 -103 -105 -195 -173 -324 -239 -224 -115 -338 -141 -615 -141 -174 0 -214 3 -304 23 -345 77 -623 280 -784 572 -160 290 -247 769 -251 1380 l-1 195 28 47 c17 29 44 57 70 72 67 40 460 127 744 165 265 36 315 39 588 36 229 -2 285 -6 365 -24z"/>
    <path d="M1614 3830 c-786 -76 -1319 -615 -1404 -1421 -21 -202 -2 -448 49 -653 203 -801 947 -1350 1781 -1313 599 27 1099 317 1372 797 41 71 113 247 147 355 117 383 174 820 175 1345 1 242 0 258 -22 320 -65 182 -203 320 -379 381 -190 65 -622 152 -893 180 -140 14 -711 20 -826 9z m841 -469 c260 -31 620 -106 720 -150 50 -22 91 -69 105 -122 18 -67 -11 -611 -45 -842 -105 -709 -296 -1040 -715 -1236 -163 -76 -342 -112 -550 -112 -206 0 -365 31 -537 105 -398 170 -693 554 -758 985 -20 128 -19 353 1 472 39 231 147 455 291 602 181 186 394 282 698 318 127 14 604 3 790 -20z"/>
  </g>
</svg>