<?xml version="1.0" standalone="no"?><!DOCTYPE svg PUBLIC "-//W3C//DTD SVG 1.1//EN" "http://www.w3.org/Graphics/SVG/1.1/DTD/svg11.dtd"><svg t="1774980974445" class="icon" viewBox="0 0 1024 1024" version="1.1" xmlns="http://www.w3.org/2000/svg" p-id="1078" xmlns:xlink="http://www.w3.org/1999/xlink" width="200" height="200"><path d="M900.5568 207.2576H762.88V153.6c0-33.0752-28.2624-60.0064-63.0272-60.0064H342.1184C307.2 93.696 279.0912 120.6272 279.0912 153.6v53.6576h-133.12a35.84 35.84 0 1 0 0 71.68h754.5856a35.84 35.84 0 0 0 0-71.68zM191.5904 336.9472h-15.6672V858.624c0 51.5072 48.6912 93.44 108.4928 93.44h477.4912C821.76 952.32 870.4 910.1312 870.4 858.624V336.9472H191.5904z m194.2016 422.144a20.48 20.48 0 0 1-40.96 0V496.64a20.48 20.48 0 0 1 40.96 0z m163.3792 0a20.48 20.48 0 0 1-40.96 0V496.64a20.48 20.48 0 0 1 40.96 0z m160 0a20.48 20.48 0 0 1-40.96 0V496.64a20.48 20.48 0 1 1 40.96 0z" fill="#4EA0F9" p-id="1079"></path></svg>