<svg version="1.0" xmlns="http://www.w3.org/2000/svg" width="800.000000" height="800.000000" viewBox="0 0 800.000000 800.000000" preserveAspectRatio="xMidYMid meet">
  <metadata>
    <rdf:RDF xmlns:rdf="http://www.w3.org/1999/02/22-rdf-syntax-ns#" xmlns:rdfs="http://www.w3.org/2000/01/rdf-schema#" xmlns:dc="http://purl.org/dc/elements/1.1/">
      <rdf:Description dc:format="image/svg+xml" dc:Label="1" dc:ContentProducer="001191330110MACRLGPT8B00000" dc:ProduceID="401974473" dc:ReservedCode1="IfqviBW6VbdTd+1bpNbimMw59U4RQlsBEIqjZq58i0k=" dc:ContentPropagator="001191330110MACRLGPT8B00000" dc:PropagateID="401974473" dc:ReservedCode2="IfqviBW6VbdTd+1bpNbimMw59U4RQlsBEIqjZq58i0k="/>
    </rdf:RDF>
  </metadata>
  <g transform="translate(178.719869,625.939246) scale(0.056694,-0.056694)" fill="#000000" stroke="none">
    <path d="M1235 7675 c-237 -52 -453 -235 -536 -454 -52 -138 -49 28 -47 -3266 3 -3451 -6 -3090 84 -3273 84 -171 229 -296 424 -364 l95 -33 1330 -3 c971 -2 1341 0 1370 8 128 37 198 171 150 288 -19 44 -47 76 -95 105 l-35 22 -1335 5 -1335 5 -57 28 c-60 30 -114 84 -145 146 -17 34 -18 163 -21 3083 -2 3019 -2 3047 18 3100 25 67 89 133 160 167 l55 26 2570 3 c2325 2 2575 1 2624 -14 69 -20 130 -61 170 -116 65 -88 61 42 61 -1997 l0 -1855 21 -43 c72 -148 262 -161 361 -24 l33 46 0 1920 0 1920 -28 78 c-86 245 -297 435 -544 491 -65 15 -309 16 -2680 15 -2124 0 -2619 -3 -2668 -14z"/>
    <path d="M1990 6039 c-144 -58 -175 -252 -57 -356 20 -18 53 -37 74 -42 51 -14 3753 -15 3803 -1 19 5 52 24 74 42 109 90 100 256 -18 336 l-48 32 -1902 -1 c-1224 0 -1910 -4 -1926 -10z"/>
    <path d="M2225 4340 c-124 -6 -155 -17 -203 -76 -17 -20 -36 -59 -42 -85 -24 -99 44 -223 137 -248 26 -8 590 -11 1799 -11 l1760 0 53 26 c160 80 155 296 -8 379 -31 16 -150 17 -1710 18 -922 1 -1725 0 -1786 -3z"/>
    <path d="M3820 2640 c-1905 -6 -1734 2 -1798 -76 -87 -105 -51 -264 72 -320 l53 -24 1779 2 1779 3 42 27 c62 41 98 108 97 183 -1 72 -19 111 -74 158 -48 41 -106 58 -187 55 -32 -2 -825 -5 -1763 -8z"/>
    <path d="M6794 2491 c-55 -25 -88 -62 -192 -216 -48 -71 -189 -278 -313 -460 -124 -181 -265 -388 -314 -460 -207 -304 -378 -551 -390 -564 -14 -14 -69 21 -505 325 -195 136 -228 154 -295 154 -120 0 -215 -96 -215 -215 0 -49 43 -128 91 -167 24 -19 155 -111 292 -204 136 -93 311 -213 390 -266 158 -109 218 -134 303 -125 107 11 152 51 300 271 63 94 157 232 208 306 51 74 123 180 161 235 37 55 100 147 140 205 353 514 594 872 609 904 13 29 17 55 14 101 -5 83 -38 133 -109 169 -63 31 -117 33 -175 7z"/>
  </g>
</svg>