<svg version="1.0" xmlns="http://www.w3.org/2000/svg" width="800.000000" height="800.000000" viewBox="0 0 800.000000 800.000000" preserveAspectRatio="xMidYMid meet">
  <metadata>
    <rdf:RDF xmlns:rdf="http://www.w3.org/1999/02/22-rdf-syntax-ns#" xmlns:rdfs="http://www.w3.org/2000/01/rdf-schema#" xmlns:dc="http://purl.org/dc/elements/1.1/">
      <rdf:Description dc:format="image/svg+xml" dc:Label="1" dc:ContentProducer="001191330110MACRLGPT8B00000" dc:ProduceID="401974474" dc:ReservedCode1="J8Q4NPZdDXlYww1caKi5ylG69yOXWPSOPZDrVARB/fQ=" dc:ContentPropagator="001191330110MACRLGPT8B00000" dc:PropagateID="401974474" dc:ReservedCode2="J8Q4NPZdDXlYww1caKi5ylG69yOXWPSOPZDrVARB/fQ="/>
    </rdf:RDF>
  </metadata>
  <g transform="translate(178.850537,626.505174) scale(0.056075,-0.056075)" fill="#000000" stroke="none">
    <path d="M3704 7759 c-747 -51 -1462 -318 -2044 -762 -587 -449 -1030 -1062 -1268 -1757 -182 -530 -239 -1161 -156 -1730 68 -472 236 -939 486 -1352 161 -267 203 -308 311 -309 62 -1 92 10 136 47 60 50 88 149 61 219 -6 15 -43 77 -84 138 -162 246 -285 499 -376 777 -177 538 -212 1088 -104 1645 33 169 46 221 101 390 270 829 855 1515 1634 1914 207 106 402 185 594 240 793 228 1626 168 2359 -171 172 -80 281 -141 451 -254 196 -130 336 -245 505 -414 477 -477 784 -1055 914 -1725 64 -331 72 -762 20 -1095 -35 -220 -111 -507 -184 -691 -340 -854 -983 -1529 -1785 -1873 -762 -326 -1618 -363 -2401 -102 -296 99 -600 252 -862 433 -109 76 -147 93 -204 93 -116 -1 -220 -112 -205 -220 13 -100 51 -136 319 -304 411 -257 834 -426 1288 -515 462 -91 1012 -91 1465 0 330 66 617 162 910 304 878 426 1584 1231 1904 2169 388 1138 205 2373 -498 3359 -165 231 -406 492 -616 667 -523 436 -1150 727 -1800 834 -272 45 -616 63 -871 45z"/>
    <path d="M3770 6264 c-571 -72 -1004 -417 -1190 -949 -62 -177 -90 -458 -55 -543 34 -79 101 -122 192 -122 124 0 203 93 203 238 0 262 133 550 335 727 354 311 877 326 1238 35 193 -155 321 -382 349 -622 28 -239 -53 -495 -220 -693 -152 -180 -370 -290 -654 -330 -150 -21 -173 -30 -229 -82 -77 -72 -81 -91 -77 -430 3 -284 3 -289 27 -330 36 -62 92 -96 167 -101 44 -3 72 1 97 13 49 23 103 85 116 132 6 21 11 120 11 219 l0 181 92 17 c176 33 388 127 541 242 158 119 322 315 412 493 147 295 175 655 74 966 -65 196 -178 381 -324 530 -257 261 -578 400 -945 410 -69 2 -141 1 -160 -1z"/>
    <path d="M3817 2590 c-92 -24 -177 -92 -224 -182 -24 -47 -28 -64 -28 -143 0 -78 4 -98 28 -146 82 -168 278 -237 453 -159 66 29 148 117 174 187 29 78 25 186 -10 258 -32 66 -99 131 -165 161 -61 28 -167 39 -228 24z"/>
  </g>
</svg>