<svg version="1.0" xmlns="http://www.w3.org/2000/svg" width="800.000000" height="800.000000" viewBox="0 0 800.000000 800.000000" preserveAspectRatio="xMidYMid meet">
  <metadata>
    <rdf:RDF xmlns:rdf="http://www.w3.org/1999/02/22-rdf-syntax-ns#" xmlns:rdfs="http://www.w3.org/2000/01/rdf-schema#" xmlns:dc="http://purl.org/dc/elements/1.1/">
      <rdf:Description dc:format="image/svg+xml" dc:Label="1" dc:ContentProducer="001191330110MACRLGPT8B00000" dc:ProduceID="401974476" dc:ReservedCode1="tLe9QPR1XM5oCDdUKR6Px3tLLIOFYvamyJv1qrvSgtg=" dc:ContentPropagator="001191330110MACRLGPT8B00000" dc:PropagateID="401974476" dc:ReservedCode2="tLe9QPR1XM5oCDdUKR6Px3tLLIOFYvamyJv1qrvSgtg="/>
    </rdf:RDF>
  </metadata>
  <g transform="translate(172.507982,632.461883) scale(0.057988,-0.057988)" fill="#000000" stroke="none">
    <path d="M3780 7416 c-88 -19 -158 -47 -243 -97 -81 -48 -111 -77 -832 -814 -509 -520 -548 -560 -1597 -1631 -483 -494 -716 -739 -737 -775 -115 -199 -85 -431 75 -594 110 -111 225 -145 501 -145 l132 0 3 -1102 3 -1103 32 -84 c69 -179 202 -326 365 -405 171 -83 -45 -77 2465 -74 l2238 3 80 27 c118 41 200 92 295 188 62 62 96 106 127 165 82 159 76 65 83 1295 l5 1095 155 -3 c227 -5 331 22 441 113 172 144 223 391 123 594 -33 66 -64 102 -273 315 -130 133 -313 320 -406 416 -94 96 -367 375 -606 620 -239 245 -607 623 -819 840 -211 217 -477 490 -590 605 -114 116 -240 245 -281 289 -116 123 -235 199 -384 246 -90 28 -262 35 -355 16z m283 -465 c57 -27 86 -56 603 -586 384 -394 566 -581 1030 -1055 104 -107 343 -352 529 -545 187 -192 425 -438 530 -545 105 -107 228 -234 274 -282 113 -118 114 -118 -120 -118 -98 0 -202 -5 -231 -11 -90 -19 -169 -63 -232 -128 -68 -72 -102 -141 -116 -236 -6 -44 -10 -472 -10 -1129 0 -782 -3 -1069 -12 -1098 -15 -50 -78 -122 -132 -151 -41 -22 -43 -22 -663 -25 l-623 -3 0 929 c0 590 -4 949 -10 983 -34 177 -186 337 -365 384 -85 22 -1112 22 -1194 0 -189 -50 -330 -205 -361 -395 -6 -42 -10 -393 -10 -980 l1 -915 -618 0 -618 0 -41 22 c-53 28 -99 74 -127 127 l-22 41 -5 1120 c-4 995 -7 1125 -21 1162 -42 108 -115 196 -206 245 -87 48 -149 58 -349 58 -147 0 -184 3 -194 15 -20 24 -82 -44 559 610 119 121 346 353 505 515 159 162 375 383 480 490 105 107 387 395 627 640 240 245 515 526 612 626 181 186 228 226 294 250 56 21 177 13 236 -15z m367 -4072 c8 -14 12 -287 13 -927 l2 -907 -522 -3 -523 -2 0 918 c0 701 3 921 12 930 9 9 136 12 510 12 492 0 497 0 508 -21z"/>
  </g>
</svg>