<?xml version="1.0" standalone="no"?><!DOCTYPE svg PUBLIC "-//W3C//DTD SVG 1.1//EN" "http://www.w3.org/Graphics/SVG/1.1/DTD/svg11.dtd"><svg t="1774719915194" class="icon" viewBox="0 0 1024 1024" version="1.1" xmlns="http://www.w3.org/2000/svg" p-id="1863" xmlns:xlink="http://www.w3.org/1999/xlink" width="200" height="200"><path d="M512 512m-480 0a480 480 0 1 0 960 0 480 480 0 1 0-960 0Z" fill="#EEEEEE" p-id="1864"></path><path d="M485.6 647.2v-22.4c0-12.8-8.8-22.4-20-22.4H400c-11.2 0-20 10.4-20 22.4v22.4h-79.2v30.4h79.2v22.4c0 12.8 8.8 22.4 20 22.4h65.6c11.2 0 20-10.4 20-22.4v-22.4h236.8v-30.4H485.6zM643.2 474.4c0-12.8-8.8-22.4-20-22.4h-66.4c-11.2 0-20 10.4-20 22.4v22.4H302.4v30.4h236v22.4c0 12.8 8.8 22.4 20 22.4H624c11.2 0 20-10.4 20-22.4v-22.4h79.2v-30.4h-78.4v-22.4z" fill="#BAD4FF" p-id="1865"></path><path d="M485.6 346.4v-22.4c0-12.8-8.8-22.4-20-22.4H400c-11.2 0-20 9.6-20 22.4v22.4h-79.2v30.4h79.2v22.4c0 12.8 8.8 22.4 20 22.4h65.6c11.2 0 20-9.6 20-22.4v-22.4h236.8v-30.4H485.6zM406.4 392v-60h52V392h-52z m79.2 255.2v-22.4c0-12.8-8.8-22.4-20-22.4H400c-11.2 0-20 10.4-20 22.4v22.4h-79.2v30.4h79.2v22.4c0 12.8 8.8 22.4 20 22.4h65.6c11.2 0 20-10.4 20-22.4v-22.4h236.8v-30.4H485.6z m-79.2 44.8V632h52v60h-52z m236.8-217.6c0-12.8-8.8-22.4-20-22.4h-66.4c-11.2 0-20 10.4-20 22.4v22.4H302.4v30.4h236v22.4c0 12.8 8.8 22.4 20 22.4H624c11.2 0 20-10.4 20-22.4v-22.4h79.2v-30.4h-78.4v-22.4z m-79.2 68v-60H616v60h-52z" fill="#4284EC" p-id="1866"></path></svg>