<svg version="1.0" xmlns="http://www.w3.org/2000/svg" width="800.000000" height="800.000000" viewBox="0 0 800.000000 800.000000" preserveAspectRatio="xMidYMid meet">
  <metadata>
    <rdf:RDF xmlns:rdf="http://www.w3.org/1999/02/22-rdf-syntax-ns#" xmlns:rdfs="http://www.w3.org/2000/01/rdf-schema#" xmlns:dc="http://purl.org/dc/elements/1.1/">
      <rdf:Description dc:format="image/svg+xml" dc:Label="1" dc:ContentProducer="001191330110MACRLGPT8B00000" dc:ProduceID="401974475" dc:ReservedCode1="sq4vnfg2WwQnd9+czd/e0yCbn5BocNCXu35Kx3Dal0g=" dc:ContentPropagator="001191330110MACRLGPT8B00000" dc:PropagateID="401974475" dc:ReservedCode2="sq4vnfg2WwQnd9+czd/e0yCbn5BocNCXu35Kx3Dal0g="/>
    </rdf:RDF>
  </metadata>
  <g transform="translate(181.203055,629.862460) scale(0.056324,-0.056324)" fill="#000000" stroke="none">
    <path d="M935 7795 c-243 -53 -466 -216 -594 -433 -48 -80 -82 -169 -107 -277 -18 -77 -19 -179 -19 -2715 l1 -2635 22 -80 c91 -326 344 -586 659 -677 77 -23 84 -23 694 -23 l616 0 41 29 c107 74 107 228 0 302 l-41 29 -591 5 c-579 5 -592 5 -649 27 -32 12 -80 34 -105 49 -68 40 -163 139 -205 214 -73 131 -67 -101 -67 2770 0 2849 -4 2647 62 2774 41 78 146 183 223 223 127 67 2 63 2227 63 2187 0 2085 2 2199 -55 136 -69 227 -174 280 -325 22 -62 23 -80 27 -425 l3 -360 25 -43 c28 -47 102 -92 154 -92 69 0 140 47 171 115 17 36 19 70 19 365 0 179 -5 362 -10 407 -41 321 -279 616 -592 733 -142 52 -34 50 -2291 49 -1694 0 -2103 -3 -2152 -14z"/>
    <path d="M1405 6381 c-61 -38 -105 -109 -105 -168 1 -37 31 -102 61 -130 61 -56 -37 -53 1669 -53 1314 0 1576 2 1603 14 39 17 92 71 106 109 30 77 -4 172 -77 218 l-46 29 -1590 0 c-1535 0 -1592 -1 -1621 -19z"/>
    <path d="M4850 5384 c-19 -2 -73 -9 -120 -15 -546 -66 -1040 -300 -1433 -678 -371 -358 -607 -776 -721 -1276 -43 -189 -51 -275 -51 -535 1 -317 26 -486 115 -765 225 -702 752 -1280 1432 -1569 604 -257 1323 -258 1928 -4 319 135 561 298 816 553 391 389 626 849 716 1398 18 111 22 174 22 392 0 227 -3 277 -23 395 -44 257 -118 482 -236 715 -135 269 -291 481 -501 685 -200 193 -412 342 -659 461 -231 112 -464 183 -735 224 -100 15 -474 28 -550 19z m368 -374 c551 -43 1082 -310 1440 -725 319 -371 493 -797 521 -1281 32 -541 -132 -1056 -472 -1479 -83 -103 -269 -284 -375 -364 -266 -202 -595 -346 -913 -402 -187 -32 -362 -42 -515 -30 -311 26 -542 89 -810 221 -867 427 -1348 1400 -1159 2345 65 322 222 661 425 914 83 103 238 260 334 337 424 342 968 507 1524 464z"/>
    <path d="M4934 4021 c-23 -10 -54 -36 -70 -57 l-29 -37 -3 -589 c-2 -461 0 -594 10 -613 7 -13 231 -254 498 -536 267 -282 504 -534 528 -560 77 -86 159 -109 242 -66 97 49 134 165 80 254 -22 37 -414 456 -837 896 l-153 159 0 517 0 517 -26 40 c-55 85 -154 116 -240 75z"/>
    <path d="M1414 4851 c-113 -52 -143 -194 -61 -288 55 -62 60 -63 437 -63 322 0 343 1 380 20 85 44 122 156 78 239 -13 25 -40 59 -61 75 l-39 31 -346 3 c-323 2 -350 1 -388 -17z"/>
  </g>
</svg>