<?xml version="1.0" standalone="no"?><!DOCTYPE svg PUBLIC "-//W3C//DTD SVG 1.1//EN" "http://www.w3.org/Graphics/SVG/1.1/DTD/svg11.dtd"><svg t="1774720253656" class="icon" viewBox="0 0 6619 1024" version="1.1" xmlns="http://www.w3.org/2000/svg" p-id="2192" data-spm-anchor-id="a313x.search_index.0.i3.387f3a81lAbwnn" xmlns:xlink="http://www.w3.org/1999/xlink" width="1292.7734375" height="200"><path d="M3170.307754 151.625083v27.254129h-104.602114v119.380762h123.603232V326.281825h-123.603232v95.965242h-26.870268v-95.965242h-123.795163v-28.021851h123.795163V178.879212h-104.602115V151.625083z m-600.934349-9.788454v230.316582a38.386097 38.386097 0 0 1-5.182123 19.193048 57.579146 57.579146 0 0 1-12.667412 14.586717 63.912852 63.912852 0 0 1-16.314091 9.596524 81.762387 81.762387 0 0 1-15.54637 5.182124l-5.757914-26.678338 7.101428-2.303166a61.993547 61.993547 0 0 0 9.596524-4.606331 30.708878 30.708878 0 0 0 8.828802-6.717567 13.051273 13.051273 0 0 0 3.64668-8.828803v-230.316582z m-233.195539 153.544388l26.870268 2.495096s0 4.414401-1.727375 11.515829-2.495096 16.314091-4.798262 27.63799-5.565984 24.183241-9.404594 38.386097a403.054019 403.054019 0 0 1-15.354439 44.144012l-24.375171-10.940038a319.180397 319.180397 0 0 0 14.202856-41.265054c3.646679-13.435134 6.717567-25.526755 8.828802-36.274862s3.83861-19.193049 4.606332-25.910616v-7.485288z m-441.440116-153.544388v38.386097H1957.690949a12.475482 12.475482 0 0 1 9.404594 4.03054 13.243203 13.243203 0 0 1 4.03054 9.788455v168.323035a44.527873 44.527873 0 0 1-6.333706 24.183241 59.49845 59.49845 0 0 1-15.162509 16.506022 70.054627 70.054627 0 0 1-19.193048 10.172316 77.923777 77.923777 0 0 1-17.273744 4.606331l-3.646679-27.254129 5.374054-1.343513a55.27598 55.27598 0 0 0 12.09162-4.414401 42.800498 42.800498 0 0 0 11.89969-8.636872 19.193049 19.193049 0 0 0 5.374054-13.818995v-153.544388h-49.901926v16.697952a460.633164 460.633164 0 0 1-3.262819 56.043702 449.309266 449.309266 0 0 1-8.06108 47.022969q-4.798262 21.304284-10.364246 38.386097c-3.83861 10.940038-7.485289 20.344631-10.748107 28.02185a176.959907 176.959907 0 0 1-8.444942 17.657605 50.669648 50.669648 0 0 1-4.22247 6.909498l-22.072006-14.394787a23.60745 23.60745 0 0 1 1.727374-3.454749c1.343513-2.111235 2.878957-5.182123 4.990193-9.404593l-24.759033 4.990192-1.727374-8.444941a95.965243 95.965243 0 0 1-19.193049 6.141775 107.864933 107.864933 0 0 1-25.334824 2.687027h-44.144011a12.091621 12.091621 0 0 1-9.212664-4.03054 13.051273 13.051273 0 0 1-3.838609-9.404594v-7.293358a12.667412 12.667412 0 0 1 2.111235-6.909498 166.595661 166.595661 0 0 0 10.748107-24.567102c3.646679-9.404594 6.909497-19.193049 9.980386-29.365364s5.757915-19.193049 8.25301-29.365364 4.222471-17.849535 5.757915-24.567102h-39.921541v-27.63799h134.35134v27.254129h-66.791809c-1.151583 5.757915-2.878957 12.859343-4.990193 21.496214s-4.606332 18.041466-7.485289 28.021851-5.949845 19.193049-9.404594 30.133086-7.101428 19.193049-10.940037 27.82992h26.678337a73.701306 73.701306 0 0 0 23.991311-3.262818 61.417755 61.417755 0 0 0 13.435134-5.949845c-1.727374-7.86915-3.646679-15.7383-5.757915-23.415519s-3.83861-14.394786-5.374053-20.536562-2.878957-10.940038-3.83861-14.778647-1.727374-5.757915-1.727374-5.949845l25.910615-7.485289s1.151583 4.414401 2.878957 11.515829 4.222471 15.546369 6.717567 25.526754 5.374054 20.728492 8.061081 32.244322 4.990193 22.072006 6.909497 31.476599l1.343514-3.454748c2.111235-4.606332 4.222471-10.364246 6.717567-16.697952l1.727374-4.990193a334.150975 334.150975 0 0 0 10.748107-36.082931c3.262818-13.818995 6.141776-29.365364 8.444942-46.639108a424.358303 424.358303 0 0 0 3.454748-56.043702v-16.697952h-33.012043V180.222726h33.012043v-38.386097zM844.494135 138.189949v46.063317h24.759032V211.123534H844.494135v55.65984l7.86915-5.757914c2.495096-2.111235 5.182123-4.222471 7.485289-6.525637l17.657604 21.112354a172.737437 172.737437 0 0 1-16.314091 13.051273c-5.757915 3.83861-11.323899 7.485289-16.697952 10.748107V364.667922a42.416637 42.416637 0 0 1-5.182123 21.112353 52.780883 52.780883 0 0 1-12.283551 15.7383 76.772194 76.772194 0 0 1-15.54637 10.556177 67.3676 67.3676 0 0 1-15.162508 5.565984l-6.717567-26.678338 4.414401-1.343513a37.234514 37.234514 0 0 0 9.596524-4.798262 38.386097 38.386097 0 0 0 9.404594-8.253011 17.849535 17.849535 0 0 0 4.414401-11.89969v-51.053509c-6.525636 2.878957-11.89969 5.182123-16.12216 6.717567l-7.101428 2.687027-7.293359-26.294477a76.772194 76.772194 0 0 1 9.212664-3.646679c5.757915-2.303166 13.051273-5.565984 21.880075-9.980385V211.123534h-27.829921V184.253266h27.829921V138.189949z m1594.17461 58.922659v115.158291a75.04482 75.04482 0 0 1-1.151583 14.010926l60.266172 70.438488-20.344631 19.193048-49.709996-58.730728a129.361147 129.361147 0 0 1-16.506022 25.526754 175.616394 175.616394 0 0 1-19.193048 19.193049 115.158291 115.158291 0 0 1-15.354439 12.283551 40.497332 40.497332 0 0 1-7.485289 4.798262l-13.243203-23.79938 4.414401-2.878957 10.364246-7.86915c4.03054-3.454749 8.444941-7.485289 13.243203-12.475482a111.511612 111.511612 0 0 0 13.243204-16.314091 91.358911 91.358911 0 0 0 10.172316-19.193048 64.104782 64.104782 0 0 0 4.22247-22.647798v-115.158291z m-1511.06871 68.519183l24.375171 11.51583-3.262818 7.677219h111.511612v27.446059h-28.789573a103.066671 103.066671 0 0 1-12.283551 26.678338 124.754815 124.754815 0 0 1-17.273743 21.496214c8.444941 3.646679 16.314091 7.293358 23.607449 10.748107l19.193049 9.212664c5.374054 2.878957 9.788455 4.990193 13.051273 6.909497l5.374053 2.878957-12.667412 24.567102-5.949845-3.262818-15.738299-8.444941-22.839728-11.131968c-8.828802-4.03054-18.233396-8.06108-28.405712-12.283551a183.677474 183.677474 0 0 1-32.436252 17.465674 301.522792 301.522792 0 0 1-30.516947 10.940037c-9.020733 2.495096-16.697952 4.414401-22.839728 5.565985l-10.556177 1.727374-3.262818-27.254129 5.949845-1.151583 14.778648-3.454749c6.141776-1.535444 13.243203-3.646679 21.112353-6.333706a195.001373 195.001373 0 0 0 23.991311-10.172315 329.928504 329.928504 0 0 0-38.386097-10.940038 11.323899 11.323899 0 0 1-5.182124-2.687027 20.536562 20.536562 0 0 1-3.838609-4.414401 13.435134 13.435134 0 0 1 0-12.091621l10.940037-25.142893h-31.86046v-26.870268h44.144011z m1138.147777-125.330606l26.102546 2.303165v6.717567a127.057981 127.057981 0 0 1-3.262818 15.54637c-1.535444 6.141776-3.83861 13.435134-6.717567 21.496214a167.363383 167.363383 0 0 1-11.70776 24.567102v204.789828h-26.486407v-171.201993a132.240104 132.240104 0 0 1-12.475481 10.364246 111.703542 111.703542 0 0 1-14.586717 9.404594l-12.475482-24.183241a105.369836 105.369836 0 0 0 23.991311-18.233396 123.987093 123.987093 0 0 0 16.889883-21.496214 136.846436 136.846436 0 0 0 11.131968-21.688145 175.424463 175.424463 0 0 0 6.525636-19.193049c1.535444-5.757915 2.495096-10.364246 3.070888-13.818995v-5.374053z m752.943293 2.303165V182.333961h23.41552l-8.828803-26.678338 26.486407-8.828802 11.323899 35.50714h12.09162v27.446059h-63.52899a448.157683 448.157683 0 0 0 5.757914 70.630419 278.107273 278.107273 0 0 0 12.091621 49.134204 129.936938 129.936938 0 0 0 15.354439 31.4766 99.803852 99.803852 0 0 0 15.354438 17.657604 46.255247 46.255247 0 0 0 11.899691 7.67722l4.990192 1.727374-3.454749 27.254129-7.485288-2.111235a61.801616 61.801616 0 0 1-16.314092-8.636872 122.259719 122.259719 0 0 1-20.728492-19.193049 144.331725 144.331725 0 0 1-20.536562-36.082931 268.702679 268.702679 0 0 1-16.122161-57.579146 482.129379 482.129379 0 0 1-7.485289-81.954317h-102.107018V182.333961h102.107018V142.60435z m-644.694499-1.343513v122.067789a247.398395 247.398395 0 0 0 28.405711-23.79938c7.86915-7.86915 14.586717-15.162508 19.193049-21.496215a135.694853 135.694853 0 0 0 11.70776-15.546369l3.838609-5.949845 22.839728 13.818995s-2.111235 3.646679-5.565984 9.212663a211.123534 211.123534 0 0 1-15.93023 20.536562 351.040857 351.040857 0 0 1-26.870268 27.254129 264.672139 264.672139 0 0 1-38.386097 28.981503v79.843082a11.70776 11.70776 0 0 0 0 3.070888 8.253011 8.253011 0 0 0 2.495096 3.646679 16.122161 16.122161 0 0 0 5.757915 2.878957 29.557295 29.557295 0 0 0 10.172315 1.343514h36.274862a19.193049 19.193049 0 0 0 10.556177-2.878958 36.466792 36.466792 0 0 0 7.677219-6.333706 51.629301 51.629301 0 0 0 4.606332-6.333706l1.535444-3.070887 24.567102 11.323898-3.454749 6.141776a60.841964 60.841964 0 0 1-8.828802 11.89969 59.882311 59.882311 0 0 1-15.162509 11.707759 42.416637 42.416637 0 0 1-21.496214 5.182123h-36.274862a55.851771 55.851771 0 0 1-16.697952-2.495096 42.992429 42.992429 0 0 1-14.586717-7.101428 39.53768 39.53768 0 0 1-10.364246-12.09162 37.042584 37.042584 0 0 1-3.83861-17.273744v-64.296713c-6.525636 3.262818-13.243203 6.333706-20.344631 9.404594s-14.586717 5.565984-22.263936 8.061081l-8.444942-26.102546a233.771331 233.771331 0 0 0 27.062199-10.364247c8.444941-4.03054 16.506022-8.06108 23.99131-12.09162V141.260837zM1510.109057 134.35134l23.41552 13.243203-11.51583 21.304284h110.360029a12.475482 12.475482 0 0 1 9.404594 4.03054 13.243203 13.243203 0 0 1 4.03054 9.788455v231.276235h-26.678337V403.054019h-162.948982v10.364246h-26.486407v-230.316582a13.243203 13.243203 0 0 1 3.83861-9.788455 12.091621 12.091621 0 0 1 9.212663-4.03054h49.134204z m1933.699639 153.544388a12.475482 12.475482 0 0 1 9.404593 4.03054 13.818995 13.818995 0 0 1 3.83861 7.86915v112.471264h-26.870268v-9.788455h-152.584736v9.788455h-26.678337v-111.127751a14.586717 14.586717 0 0 1 3.83861-10.172315 12.859343 12.859343 0 0 1 8.06108-3.070888h181.566239z m-785.571476-60.841964a12.091621 12.091621 0 0 1 9.596524 3.262818 14.010925 14.010925 0 0 1 3.83861 9.788455v121.683928a128.785356 128.785356 0 0 0 11.323898-11.51583 142.988211 142.988211 0 0 0 10.940038-12.859342l20.920423 16.889883c-3.262818 4.222471-6.525636 8.253011-9.980385 12.283551l-10.364247 11.323898h13.435134c6.141776 0 12.859343-1.151583 20.536562-2.111235v-99.611922h-35.891V249.509631H2782.992035v27.63799h-28.213781v95.965242l15.7383-3.454749 15.93023-4.414401 7.485289 26.294477a247.590326 247.590326 0 0 1-36.466792 9.212663c-12.091621 1.919305-23.031658 3.646679-32.820113 4.606332s-17.657605 1.727374-24.183242 1.919305h-10.364246v-24.567103c-6.333706 6.141776-11.70776 10.940038-16.314091 14.778648l-7.485289 6.141775a13.818995 13.818995 0 0 1-3.83861 1.727375 10.364246 10.364246 0 0 1-4.03054 0.959652 13.051273 13.051273 0 0 1-9.788455-3.262818 13.243203 13.243203 0 0 1-4.03054-9.596524v-138.957672H2610.254598v-27.446059zM1323.168765 161.989329a12.475482 12.475482 0 0 1 9.404594 4.030541 13.243203 13.243203 0 0 1 4.03054 9.788454V401.134714h-26.486407v-13.051273h-165.444078v13.051273h-27.062199V175.808324a13.243203 13.243203 0 0 1 4.03054-9.788454 12.859343 12.859343 0 0 1 9.404594-4.030541h191.930485z m295.956808 172.737437h-162.948982v41.456985h162.948982z m1811.247989-19.193048h-152.584736v58.730728h152.584736zM1310.117492 189.627319h-165.444078v171.010063h165.444078z m1216.455415-28.981503v197.496469h-27.062199V160.645816z m-1523.736122 151.625083h-66.024087l-9.404594 21.496215 23.41552 7.101428c7.677219 2.495096 15.354439 5.374054 22.839727 8.253011a111.895473 111.895473 0 0 0 16.506022-16.506022 95.965243 95.965243 0 0 0 12.667412-20.344632z m1465.965046-160.261955a12.667412 12.667412 0 0 1 9.404594 3.83861 12.859343 12.859343 0 0 1 4.03054 9.596524v172.737437h-26.870268V179.263073h-58.538798v158.534581h-26.486407v-172.737437a12.667412 12.667412 0 0 1 3.83861-9.596524 11.89969 11.89969 0 0 1 9.212663-3.83861h85.409066z m-849.676258 111.127751h-162.948982v42.608568h162.948982z m716.476501-46.831038l25.910616 57.579145-23.991311 11.70776-25.910616-57.579146z m794.400278-20.728493l24.950963 9.980386-27.63799 71.014279-24.567102-10.364246z m-156.231415 0l28.021851 70.630419-24.567102 10.364246-27.82992-71.014279z m345.474874-59.114589l23.031658 13.818995-5.182123 8.636872c-3.262818 4.990193-7.485289 11.131968-13.051273 19.193048s-12.091621 15.93023-19.193049 25.142894a265.439861 265.439861 0 0 1-20.344631 21.688145l-5.757915 5.182123h91.550842a164.100565 164.100565 0 0 0 32.820113-2.687027 172.737437 172.737437 0 0 0 19.193048-4.414401h3.070888l-20.536562-40.305402 23.79938-12.859343 45.295595 89.439606-23.415519 12.475482-12.859343-25.334824a227.437625 227.437625 0 0 1-26.678337 7.101428 175.232533 175.232533 0 0 1-34.163627 3.454749h-126.290259a12.667412 12.667412 0 0 1-9.404594-4.222471 12.859343 12.859343 0 0 1-3.83861-7.485289v-9.980385a12.667412 12.667412 0 0 1 5.757915-10.748107 242.600133 242.600133 0 0 0 31.092739-28.213782c9.212663-10.364246 17.273744-19.193049 24.183241-28.597642s11.89969-16.122161 15.7383-22.263936 6.333706-9.020733 6.333706-9.020733z m-2314.873582 57.579146l25.718685 7.677219-8.828802 30.516947h38.386097v27.63799h-184.253266v-28.213781h39.53768l-8.828802-30.516948 25.526754-7.677219 11.323899 38.386097h50.669648z m614.177553 3.454748h-162.373191v38.386097h162.948982z m1033.929523-53.164744l32.820113 51.821231-22.455867 14.970578-32.820113-51.629301z m-317.453022-4.606332l25.910615 57.579146-23.99131 11.515829-25.910616-57.579146z m-1361.746793 0L978.845474 159.494233h72.357793v27.254129h-166.787591V159.494233h66.983739l-3.262818-15.354439zM1823.339609 158.534581V186.172571h-107.673002V158.534581z" fill="#3574FA" p-id="2193"></path><path d="M346.434526 74.660959l109.976168 63.52899v268.89461l-63.720921 36.658723-47.2149 26.870268-107.864932 61.993546v-119.188831L345.474873 351.424718v-152.392805z m0 0v126.86605l-107.864933 61.993547V137.038366z" fill="#2B85FB" p-id="2194"></path><path d="M95.965243 191.930485l23.79938 13.818995V481.745518L95.965243 467.926523zM47.790691 164.484426l23.79938 13.818995v275.804107l-23.79938-13.818995zM0 136.846436l23.79938 13.818995v275.804107L0 412.458613z" fill="#2B85FB" p-id="2195"></path><path d="M238.377663 109.400377v27.446059l-119.572693 69.094975L95.965243 191.930485z m0-55.08405v27.63799l-167.171453 95.965243-23.60745-13.243204z m0-54.316327v26.870268L23.79938 150.857361 0 137.038366l19.193049-10.748107zM238.377663 385.972206v27.63799l-119.188832 68.903044V454.87525z m0-54.892119v27.446059l-119.188832 68.903044v-27.446059z m0-55.084049v27.446059L119.188831 372.345141V345.474873z" fill="#2B85FB" p-id="2196"></path></svg>